<?xml version="1.0" encoding="UTF-8" standalone="no"?>
<!DOCTYPE svg PUBLIC "-//W3C//DTD SVG 1.1//EN" "http://www.w3.org/Graphics/SVG/1.1/DTD/svg11.dtd">
<svg width="100%" height="100%" viewBox="0 0 25 26" version="1.1" xmlns="http://www.w3.org/2000/svg" xmlns:xlink="http://www.w3.org/1999/xlink" xml:space="preserve" xmlns:serif="http://www.serif.com/" style="fill-rule:evenodd;clip-rule:evenodd;stroke-linejoin:round;stroke-miterlimit:2;">
    <g transform="matrix(1,0,0,1,-2.1875,-3.15479)">
        <path d="M4.627,28.185C3.956,28.185 3.382,27.947 2.904,27.469C2.426,26.991 2.188,26.417 2.188,25.746L2.188,8.673C2.188,8.002 2.426,7.428 2.904,6.951C3.382,6.473 3.956,6.234 4.627,6.234L15.511,6.234L13.072,8.673L4.627,8.673L4.627,25.746L21.7,25.746L21.7,17.271L24.139,14.832L24.139,25.746C24.139,26.417 23.9,26.991 23.422,27.469C22.945,27.947 22.37,28.185 21.7,28.185L4.627,28.185ZM18.255,6.935L19.992,8.643L11.944,16.691L11.944,18.429L13.651,18.429L21.73,10.35L23.468,12.057L15.389,20.137C15.165,20.36 14.906,20.538 14.611,20.67C14.317,20.802 14.007,20.868 13.681,20.868L10.724,20.868C10.379,20.868 10.089,20.751 9.855,20.518C9.621,20.284 9.505,19.994 9.505,19.649L9.505,16.691C9.505,16.366 9.566,16.056 9.688,15.762C9.809,15.467 9.982,15.208 10.206,14.984L18.255,6.935ZM23.468,12.057L18.255,6.935L21.303,3.886C21.791,3.399 22.376,3.155 23.056,3.155C23.737,3.155 24.312,3.399 24.779,3.886L26.486,5.624C26.954,6.092 27.188,6.661 27.188,7.332C27.188,8.002 26.954,8.571 26.486,9.039L23.468,12.057Z" style="fill-rule:nonzero;"/>
    </g>
</svg>
