<?xml version="1.0" encoding="UTF-8" standalone="no"?>
<!DOCTYPE svg PUBLIC "-//W3C//DTD SVG 1.1//EN" "http://www.w3.org/Graphics/SVG/1.1/DTD/svg11.dtd">
<svg width="100%" height="100%" viewBox="0 0 23 25" version="1.1" xmlns="http://www.w3.org/2000/svg" xmlns:xlink="http://www.w3.org/1999/xlink" xml:space="preserve" xmlns:serif="http://www.serif.com/" style="fill-rule:evenodd;clip-rule:evenodd;stroke-linejoin:round;stroke-miterlimit:2;">
    <g transform="matrix(1,0,0,1,-3.75,-3.48291)">
        <path d="M15,23.483C13.833,23.483 12.719,23.665 11.656,24.03C10.594,24.394 9.625,24.941 8.75,25.67L8.75,25.983L21.25,25.983L21.25,25.67C20.375,24.941 19.406,24.394 18.344,24.03C17.281,23.665 16.167,23.483 15,23.483ZM6.25,24.545C7.375,23.441 8.682,22.572 10.172,21.936C11.662,21.301 13.271,20.983 15,20.983C16.729,20.983 18.339,21.301 19.828,21.936C21.318,22.572 22.625,23.441 23.75,24.545L23.75,8.483L6.25,8.483L6.25,24.545ZM15,18.483C13.792,18.483 12.76,18.056 11.906,17.202C11.052,16.348 10.625,15.316 10.625,14.108C10.625,12.9 11.052,11.868 11.906,11.014C12.76,10.16 13.792,9.733 15,9.733C16.208,9.733 17.24,10.16 18.094,11.014C18.948,11.868 19.375,12.9 19.375,14.108C19.375,15.316 18.948,16.348 18.094,17.202C17.24,18.056 16.208,18.483 15,18.483ZM15,15.983C15.521,15.983 15.964,15.801 16.328,15.436C16.693,15.072 16.875,14.629 16.875,14.108C16.875,13.587 16.693,13.144 16.328,12.78C15.964,12.415 15.521,12.233 15,12.233C14.479,12.233 14.037,12.415 13.672,12.78C13.307,13.144 13.125,13.587 13.125,14.108C13.125,14.629 13.307,15.072 13.672,15.436C14.037,15.801 14.479,15.983 15,15.983ZM6.25,28.483C5.563,28.483 4.974,28.238 4.484,27.749C3.995,27.259 3.75,26.67 3.75,25.983L3.75,8.483C3.75,7.795 3.995,7.207 4.484,6.717C4.974,6.228 5.563,5.983 6.25,5.983L7.5,5.983L7.5,3.483L10,3.483L10,5.983L20,5.983L20,3.483L22.5,3.483L22.5,5.983L23.75,5.983C24.438,5.983 25.026,6.228 25.516,6.717C26.005,7.207 26.25,7.795 26.25,8.483L26.25,25.983C26.25,26.67 26.005,27.259 25.516,27.749C25.026,28.238 24.438,28.483 23.75,28.483L6.25,28.483Z" style="fill-rule:nonzero;"/>
    </g>
</svg>
