<?xml version="1.0" encoding="UTF-8" standalone="no"?>
<!DOCTYPE svg PUBLIC "-//W3C//DTD SVG 1.1//EN" "http://www.w3.org/Graphics/SVG/1.1/DTD/svg11.dtd">
<svg width="100%" height="100%" viewBox="0 0 16 21" version="1.1" xmlns="http://www.w3.org/2000/svg" xmlns:xlink="http://www.w3.org/1999/xlink" xml:space="preserve" xmlns:serif="http://www.serif.com/" style="fill-rule:evenodd;clip-rule:evenodd;stroke-linejoin:round;stroke-miterlimit:2;">
    <g transform="matrix(1,0,0,1,0,-0.5)">
        <path d="M2,21.5C1.45,21.5 0.979,21.304 0.588,20.913C0.196,20.521 0,20.05 0,19.5L0,9.5C0,8.95 0.196,8.479 0.588,8.088C0.979,7.696 1.45,7.5 2,7.5L3,7.5L3,5.5C3,4.117 3.487,2.938 4.463,1.962C5.438,0.988 6.617,0.5 8,0.5C9.383,0.5 10.563,0.988 11.538,1.962C12.512,2.938 13,4.117 13,5.5L13,7.5L14,7.5C14.55,7.5 15.021,7.696 15.413,8.088C15.804,8.479 16,8.95 16,9.5L16,19.5C16,20.05 15.804,20.521 15.413,20.913C15.021,21.304 14.55,21.5 14,21.5L2,21.5ZM2,19.5L14,19.5L14,9.5L2,9.5L2,19.5ZM8,16.5C8.55,16.5 9.021,16.304 9.413,15.913C9.804,15.521 10,15.05 10,14.5C10,13.95 9.804,13.479 9.413,13.088C9.021,12.696 8.55,12.5 8,12.5C7.45,12.5 6.979,12.696 6.588,13.088C6.196,13.479 6,13.95 6,14.5C6,15.05 6.196,15.521 6.588,15.913C6.979,16.304 7.45,16.5 8,16.5ZM5,7.5L11,7.5L11,5.5C11,4.667 10.708,3.958 10.125,3.375C9.542,2.792 8.833,2.5 8,2.5C7.167,2.5 6.458,2.792 5.875,3.375C5.292,3.958 5,4.667 5,5.5L5,7.5Z" style="fill-rule:nonzero;"/>
    </g>
</svg>
