<?xml version="1.0" encoding="UTF-8" standalone="no"?>
<!DOCTYPE svg PUBLIC "-//W3C//DTD SVG 1.1//EN" "http://www.w3.org/Graphics/SVG/1.1/DTD/svg11.dtd">
<svg width="100%" height="100%" viewBox="0 0 20 20" version="1.1" xmlns="http://www.w3.org/2000/svg" xmlns:xlink="http://www.w3.org/1999/xlink" xml:space="preserve" xmlns:serif="http://www.serif.com/" style="fill-rule:evenodd;clip-rule:evenodd;stroke-linejoin:round;stroke-miterlimit:2;">
    <g transform="matrix(1,0,0,1,-5.25,-6.24994)">
        <g>
            <path d="M16.083,25.75C15.776,25.75 15.519,25.646 15.312,25.439C15.104,25.231 15,24.974 15,24.667C15,24.36 15.104,24.102 15.312,23.895C15.519,23.687 15.776,23.583 16.083,23.583L22.583,23.583L22.583,8.417L16.083,8.417C15.776,8.417 15.519,8.313 15.312,8.105C15.104,7.898 15,7.64 15,7.333C15,7.026 15.104,6.769 15.312,6.561C15.519,6.354 15.776,6.25 16.083,6.25L22.583,6.25C23.179,6.25 23.689,6.462 24.113,6.886C24.538,7.311 24.75,7.821 24.75,8.417L24.75,23.583C24.75,24.179 24.538,24.689 24.113,25.113C23.689,25.538 23.179,25.75 22.583,25.75L16.083,25.75ZM14.106,17.083L6.333,17.083C6.026,17.083 5.769,16.98 5.561,16.772C5.354,16.564 5.25,16.307 5.25,16C5.25,15.693 5.354,15.436 5.561,15.228C5.769,15.02 6.026,14.917 6.333,14.917L14.106,14.917L12.075,12.885C11.876,12.687 11.777,12.443 11.777,12.154C11.777,11.865 11.876,11.612 12.075,11.396C12.274,11.179 12.526,11.066 12.833,11.057C13.14,11.048 13.402,11.152 13.619,11.369L17.492,15.242C17.708,15.458 17.817,15.711 17.817,16C17.817,16.289 17.708,16.542 17.492,16.758L13.619,20.631C13.402,20.848 13.145,20.952 12.847,20.943C12.549,20.934 12.292,20.821 12.075,20.604C11.876,20.387 11.782,20.13 11.791,19.832C11.8,19.534 11.903,19.286 12.102,19.087L14.106,17.083Z" style="fill-rule:nonzero;"/>
        </g>
    </g>
</svg>
