<?xml version="1.0" encoding="UTF-8" standalone="no"?>
<!DOCTYPE svg PUBLIC "-//W3C//DTD SVG 1.1//EN" "http://www.w3.org/Graphics/SVG/1.1/DTD/svg11.dtd">
<svg width="100%" height="100%" viewBox="0 0 25 25" version="1.1" xmlns="http://www.w3.org/2000/svg" xmlns:xlink="http://www.w3.org/1999/xlink" xml:space="preserve" xmlns:serif="http://www.serif.com/" style="fill-rule:evenodd;clip-rule:evenodd;stroke-linejoin:round;stroke-miterlimit:2;">
    <g transform="matrix(1,0,0,1,-2.5,-3.48291)">
        <path d="M25.5,3.483L4.5,3.483C3.395,3.483 2.5,4.379 2.5,5.483L2.5,26.483C2.5,27.587 3.396,28.483 4.5,28.483L25.5,28.483C26.604,28.483 27.5,27.587 27.5,26.482L27.5,5.483C27.5,4.379 26.604,3.483 25.5,3.483ZM17.273,26.277L4.773,26.277L4.773,17.187L17.273,17.187L17.273,26.277ZM17.273,14.914L4.773,14.914L4.773,5.823L17.273,5.823L17.273,14.914ZM25.227,26.277L19.546,26.277L19.546,5.823L25.227,5.823L25.227,26.277Z" style="fill-rule:nonzero;"/>
    </g>
</svg>
