<?xml version="1.0" encoding="UTF-8" standalone="no"?>
<!DOCTYPE svg PUBLIC "-//W3C//DTD SVG 1.1//EN" "http://www.w3.org/Graphics/SVG/1.1/DTD/svg11.dtd">
<svg width="100%" height="100%" viewBox="0 0 18 20" version="1.1" xmlns="http://www.w3.org/2000/svg" xmlns:xlink="http://www.w3.org/1999/xlink" xml:space="preserve" xmlns:serif="http://www.serif.com/" style="fill-rule:evenodd;clip-rule:evenodd;stroke-linejoin:round;stroke-miterlimit:2;">
    <g transform="matrix(1,0,0,1,-0.248535,0)">
        <path d="M11.749,16C11.049,16 10.457,15.758 9.974,15.275C9.49,14.792 9.249,14.2 9.249,13.5C9.249,12.8 9.49,12.208 9.974,11.725C10.457,11.242 11.049,11 11.749,11C12.448,11 13.04,11.242 13.524,11.725C14.007,12.208 14.249,12.8 14.249,13.5C14.249,14.2 14.007,14.792 13.524,15.275C13.04,15.758 12.448,16 11.749,16ZM2.249,20C1.699,20 1.228,19.804 0.836,19.413C0.444,19.021 0.249,18.55 0.249,18L0.249,4C0.249,3.45 0.444,2.979 0.836,2.588C1.228,2.196 1.699,2 2.249,2L3.249,2L3.249,1C3.249,0.717 3.344,0.479 3.536,0.288C3.728,0.096 3.965,0 4.249,0C4.532,0 4.769,0.096 4.961,0.288C5.153,0.479 5.249,0.717 5.249,1L5.249,2L13.249,2L13.249,1C13.249,0.717 13.344,0.479 13.536,0.288C13.728,0.096 13.965,0 14.249,0C14.532,0 14.769,0.096 14.961,0.288C15.153,0.479 15.249,0.717 15.249,1L15.249,2L16.249,2C16.799,2 17.269,2.196 17.661,2.588C18.053,2.979 18.249,3.45 18.249,4L18.249,18C18.249,18.55 18.053,19.021 17.661,19.413C17.269,19.804 16.799,20 16.249,20L2.249,20ZM2.249,18L16.249,18L16.249,8L2.249,8L2.249,18ZM2.249,6L16.249,6L16.249,4L2.249,4L2.249,6Z" style="fill-rule:nonzero;"/>
    </g>
</svg>
