<?xml version="1.0" encoding="UTF-8" standalone="no"?>
<!DOCTYPE svg PUBLIC "-//W3C//DTD SVG 1.1//EN" "http://www.w3.org/Graphics/SVG/1.1/DTD/svg11.dtd">
<svg width="100%" height="100%" viewBox="0 0 30 25" version="1.1" xmlns="http://www.w3.org/2000/svg" xmlns:xlink="http://www.w3.org/1999/xlink" xml:space="preserve" xmlns:serif="http://www.serif.com/" style="fill-rule:evenodd;clip-rule:evenodd;stroke-linejoin:round;stroke-miterlimit:2;">
    <g transform="matrix(1,0,0,1,-0.227416,-3.48291)">
        <path d="M22.954,5.756L22.955,26.21C22.954,26.813 22.714,27.39 22.288,27.816C21.862,28.242 21.284,28.482 20.682,28.483L16.136,28.483C15.534,28.482 14.956,28.242 14.53,27.816C14.104,27.39 13.864,26.813 13.864,26.21L13.864,5.756C13.864,5.153 14.104,4.575 14.53,4.149C14.956,3.723 15.534,3.484 16.136,3.483L20.682,3.483C21.284,3.484 21.862,3.723 22.288,4.149C22.714,4.575 22.954,5.153 22.954,5.756ZM16.136,26.21L20.682,26.21L20.682,5.756L16.136,5.756L16.136,26.21ZM16.136,5.756L16.136,26.21C16.136,26.813 15.896,27.39 15.47,27.816C15.044,28.242 14.466,28.482 13.864,28.483L9.318,28.483C8.716,28.482 8.138,28.242 7.712,27.816C7.286,27.39 7.046,26.813 7.046,26.21L7.046,5.756C7.046,5.153 7.286,4.575 7.712,4.149C8.138,3.723 8.716,3.484 9.318,3.483L13.864,3.483C14.466,3.484 15.044,3.723 15.47,4.149C15.896,4.575 16.136,5.153 16.136,5.756ZM9.318,26.21L13.864,26.21L13.864,5.756L9.318,5.756L9.318,26.21ZM9.318,5.756L9.318,26.21C9.318,26.813 9.078,27.39 8.652,27.816C8.226,28.242 7.648,28.482 7.046,28.483L2.5,28.483C1.898,28.482 1.32,28.242 0.894,27.816C0.468,27.39 0.228,26.813 0.227,26.21L0.227,5.756C0.228,5.153 0.468,4.575 0.894,4.149C1.32,3.723 1.898,3.484 2.5,3.483L7.046,3.483C7.648,3.484 8.226,3.723 8.652,4.149C9.078,4.575 9.318,5.153 9.318,5.756ZM2.5,26.21L7.046,26.21L7.046,5.756L2.5,5.756L2.5,26.21Z" style="fill-rule:nonzero;"/>
    </g>
    <g transform="matrix(1,0,0,1,-0.227416,-3.48291)">
        <path d="M29.773,5.756L29.773,26.21C29.772,26.813 29.532,27.391 29.106,27.817C28.68,28.243 28.102,28.482 27.5,28.483L22.955,28.483C22.352,28.482 21.774,28.243 21.348,27.817C20.922,27.391 20.682,26.813 20.682,26.21L20.682,5.756C20.682,5.153 20.922,4.576 21.348,4.15C21.774,3.723 22.352,3.484 22.954,3.483L27.5,3.483C28.102,3.484 28.68,3.723 29.106,4.15C29.532,4.576 29.772,5.153 29.773,5.756ZM22.955,26.21L27.5,26.21L27.5,5.756L22.954,5.756L22.955,26.21Z" style="fill-rule:nonzero;"/>
    </g>
</svg>
