<?xml version="1.0" encoding="UTF-8" standalone="no"?>
<!DOCTYPE svg PUBLIC "-//W3C//DTD SVG 1.1//EN" "http://www.w3.org/Graphics/SVG/1.1/DTD/svg11.dtd">
<svg width="100%" height="100%" viewBox="0 0 35 26" version="1.1" xmlns="http://www.w3.org/2000/svg" xmlns:xlink="http://www.w3.org/1999/xlink" xml:space="preserve" xmlns:serif="http://www.serif.com/" style="fill-rule:evenodd;clip-rule:evenodd;stroke-linejoin:round;stroke-miterlimit:2;">
    <g transform="matrix(1,0,0,1,-0.55603,-0.0439453)">
        <path d="M32.871,25.163C32.47,25.163 32.079,25.034 31.756,24.793L17.651,14.263L3.546,24.793C3.348,24.941 3.123,25.048 2.884,25.108C2.645,25.169 2.397,25.18 2.153,25.144C1.91,25.107 1.676,25.021 1.465,24.893C1.254,24.765 1.07,24.595 0.923,24.395C0.777,24.195 0.671,23.967 0.612,23.725C0.552,23.483 0.54,23.232 0.577,22.985C0.651,22.488 0.917,22.04 1.317,21.741L16.537,10.368C16.859,10.126 17.25,9.996 17.651,9.996C18.052,9.996 18.443,10.126 18.766,10.368L33.986,21.741C34.303,21.978 34.539,22.311 34.659,22.691C34.779,23.072 34.777,23.481 34.653,23.86C34.53,24.24 34.291,24.57 33.971,24.804C33.651,25.038 33.266,25.163 32.871,25.163Z" style="fill-rule:nonzero;"/>
    </g>
    <g transform="matrix(1,0,0,1,-0.55603,-0.0439453)">
        <path d="M32.871,15.211C32.47,15.212 32.079,15.082 31.756,14.841L17.651,4.311L3.546,14.841C3.146,15.14 2.645,15.267 2.153,15.192C1.661,15.117 1.219,14.848 0.923,14.443C0.628,14.039 0.503,13.532 0.577,13.034C0.651,12.536 0.917,12.089 1.317,11.789L16.536,0.416C16.859,0.174 17.25,0.044 17.651,0.044C18.052,0.044 18.443,0.174 18.766,0.416L33.985,11.789C34.303,12.026 34.539,12.359 34.659,12.74C34.779,13.12 34.777,13.529 34.653,13.909C34.53,14.288 34.291,14.618 33.971,14.852C33.651,15.086 33.266,15.212 32.871,15.211Z" style="fill-rule:nonzero;"/>
    </g>
</svg>
