<?xml version="1.0" encoding="UTF-8" standalone="no"?>
<!DOCTYPE svg PUBLIC "-//W3C//DTD SVG 1.1//EN" "http://www.w3.org/Graphics/SVG/1.1/DTD/svg11.dtd">
<svg width="100%" height="100%" viewBox="0 0 31 31" version="1.1" xmlns="http://www.w3.org/2000/svg" xmlns:xlink="http://www.w3.org/1999/xlink" xml:space="preserve" xmlns:serif="http://www.serif.com/" style="fill-rule:evenodd;clip-rule:evenodd;">
    <g transform="matrix(1,0,0,1,3.12311,2.62311)">
        <path d="M23,8.5L23,16.5C23,20.363 19.863,23.5 16,23.5L8,23.5C4.137,23.5 1,20.363 1,16.5L1,8.5C1,4.637 4.137,1.5 8,1.5L16,1.5C19.863,1.5 23,4.637 23,8.5Z" style="fill:none;stroke:black;stroke-width:2px;"/>
    </g>
    <g transform="matrix(1,0,0,1,3.12311,2.62311)">
        <path d="M12,8.5L12,16.5" style="fill:none;fill-rule:nonzero;stroke:black;stroke-width:2px;stroke-linecap:round;"/>
    </g>
    <g transform="matrix(1,0,0,1,3.12311,2.62311)">
        <path d="M16,12.575L8,12.575" style="fill:none;fill-rule:nonzero;stroke:black;stroke-width:2px;stroke-linecap:round;"/>
    </g>
</svg>
