<?xml version="1.0" encoding="UTF-8" standalone="no"?>
<!DOCTYPE svg PUBLIC "-//W3C//DTD SVG 1.1//EN" "http://www.w3.org/Graphics/SVG/1.1/DTD/svg11.dtd">
<svg width="100%" height="100%" viewBox="0 0 18 18" version="1.1" xmlns="http://www.w3.org/2000/svg" xmlns:xlink="http://www.w3.org/1999/xlink" xml:space="preserve" xmlns:serif="http://www.serif.com/" style="fill-rule:evenodd;clip-rule:evenodd;stroke-linejoin:round;stroke-miterlimit:2;">
    <g transform="matrix(1,0,0,1,0,-0.5)">
        <path d="M16.95,18.5C14.867,18.5 12.808,18.046 10.775,17.138C8.742,16.229 6.892,14.942 5.225,13.275C3.558,11.608 2.271,9.758 1.363,7.725C0.454,5.692 0,3.633 0,1.55C0,1.25 0.1,1 0.3,0.8C0.5,0.6 0.75,0.5 1.05,0.5L5.1,0.5C5.333,0.5 5.542,0.579 5.725,0.738C5.908,0.896 6.017,1.083 6.05,1.3L6.7,4.8C6.733,5.067 6.725,5.292 6.675,5.475C6.625,5.658 6.533,5.817 6.4,5.95L3.975,8.4C4.308,9.017 4.704,9.613 5.162,10.188C5.621,10.762 6.125,11.317 6.675,11.85C7.192,12.367 7.733,12.846 8.3,13.288C8.867,13.729 9.467,14.133 10.1,14.5L12.45,12.15C12.6,12 12.796,11.887 13.038,11.813C13.279,11.738 13.517,11.717 13.75,11.75L17.2,12.45C17.433,12.517 17.625,12.637 17.775,12.813C17.925,12.988 18,13.183 18,13.4L18,17.45C18,17.75 17.9,18 17.7,18.2C17.5,18.4 17.25,18.5 16.95,18.5ZM3.025,6.5L4.675,4.85L4.25,2.5L2.025,2.5C2.108,3.183 2.225,3.858 2.375,4.525C2.525,5.192 2.742,5.85 3.025,6.5ZM11.975,15.45C12.625,15.733 13.288,15.958 13.963,16.125C14.637,16.292 15.317,16.4 16,16.45L16,14.25L13.65,13.775L11.975,15.45Z" style="fill-rule:nonzero;"/>
    </g>
</svg>
