<?xml version="1.0" encoding="UTF-8" standalone="no"?>
<!DOCTYPE svg PUBLIC "-//W3C//DTD SVG 1.1//EN" "http://www.w3.org/Graphics/SVG/1.1/DTD/svg11.dtd">
<svg width="100%" height="100%" viewBox="0 0 30 21" version="1.1" xmlns="http://www.w3.org/2000/svg" xmlns:xlink="http://www.w3.org/1999/xlink" xml:space="preserve" xmlns:serif="http://www.serif.com/" style="fill-rule:evenodd;clip-rule:evenodd;stroke-linejoin:round;stroke-miterlimit:2;">
    <g transform="matrix(1,0,0,1,-0.833252,-0.255615)">
        <path d="M24.829,13.167C24.513,13.167 24.25,13.06 24.039,12.847C23.828,12.634 23.722,12.37 23.722,12.056L23.722,8.944L20.611,8.944C20.296,8.944 20.032,8.838 19.819,8.624C19.606,8.41 19.5,8.145 19.5,7.829C19.5,7.514 19.606,7.25 19.819,7.039C20.032,6.828 20.296,6.722 20.611,6.722L23.722,6.722L23.722,3.611C23.722,3.296 23.829,3.032 24.043,2.819C24.256,2.607 24.521,2.5 24.837,2.5C25.153,2.5 25.417,2.607 25.628,2.819C25.839,3.032 25.944,3.296 25.944,3.611L25.944,6.722L29.055,6.722C29.37,6.722 29.634,6.829 29.847,7.043C30.06,7.257 30.167,7.521 30.167,7.837C30.167,8.153 30.06,8.417 29.847,8.628C29.634,8.839 29.37,8.944 29.055,8.944L25.944,8.944L25.944,12.056C25.944,12.37 25.837,12.634 25.624,12.847C25.41,13.06 25.145,13.167 24.829,13.167ZM11.5,10.478C10.033,10.478 8.815,9.993 7.844,9.022C6.874,8.052 6.389,6.833 6.389,5.367C6.389,3.9 6.874,2.682 7.844,1.711C8.815,0.741 10.033,0.256 11.5,0.256C12.967,0.256 14.185,0.741 15.156,1.711C16.126,2.682 16.611,3.9 16.611,5.367C16.611,6.833 16.126,8.052 15.156,9.022C14.185,9.993 12.967,10.478 11.5,10.478ZM1.944,21.167C1.63,21.167 1.366,21.06 1.153,20.847C0.94,20.634 0.833,20.37 0.833,20.056L0.833,17.833C0.833,17.063 1.031,16.361 1.428,15.728C1.824,15.095 2.367,14.619 3.055,14.3C4.626,13.582 6.08,13.065 7.419,12.75C8.757,12.435 10.116,12.278 11.496,12.278C12.877,12.278 14.237,12.435 15.578,12.75C16.918,13.065 18.367,13.582 19.922,14.3C20.611,14.633 21.157,15.113 21.561,15.739C21.965,16.365 22.167,17.063 22.167,17.833L22.167,20.056C22.167,20.37 22.06,20.634 21.847,20.847C21.634,21.06 21.37,21.167 21.055,21.167L1.944,21.167ZM3.055,18.945L19.944,18.945L19.944,17.833C19.944,17.515 19.865,17.215 19.706,16.933C19.546,16.652 19.307,16.441 18.989,16.3C17.552,15.596 16.263,15.12 15.122,14.872C13.981,14.624 12.774,14.5 11.5,14.5C10.226,14.5 9.018,14.628 7.878,14.883C6.737,15.139 5.441,15.611 3.989,16.3C3.7,16.441 3.472,16.652 3.305,16.933C3.139,17.215 3.055,17.515 3.055,17.833L3.055,18.945ZM11.5,8.256C12.322,8.256 13.009,7.98 13.561,7.428C14.113,6.876 14.389,6.189 14.389,5.367C14.389,4.544 14.113,3.857 13.561,3.306C13.009,2.754 12.322,2.478 11.5,2.478C10.678,2.478 9.991,2.754 9.439,3.306C8.887,3.857 8.611,4.544 8.611,5.367C8.611,6.189 8.887,6.876 9.439,7.428C9.991,7.98 10.678,8.256 11.5,8.256Z" style="fill-rule:nonzero;"/>
    </g>
</svg>
