<?xml version="1.0" encoding="UTF-8" standalone="no"?>
<!DOCTYPE svg PUBLIC "-//W3C//DTD SVG 1.1//EN" "http://www.w3.org/Graphics/SVG/1.1/DTD/svg11.dtd">
<svg width="100%" height="100%" viewBox="0 0 25 25" version="1.1" xmlns="http://www.w3.org/2000/svg" xmlns:xlink="http://www.w3.org/1999/xlink" xml:space="preserve" xmlns:serif="http://www.serif.com/" style="fill-rule:evenodd;clip-rule:evenodd;stroke-linejoin:round;stroke-miterlimit:2;">
    <g transform="matrix(1,0,0,1,-4.5,-3.6665)">
        <path d="M7.167,25.333L9.033,25.333L20.533,13.833L18.667,11.967L7.167,23.467L7.167,25.333ZM26.233,11.9L20.567,6.3L22.433,4.433C22.944,3.922 23.572,3.667 24.317,3.667C25.061,3.667 25.689,3.922 26.2,4.433L28.067,6.3C28.578,6.811 28.844,7.428 28.867,8.15C28.889,8.872 28.644,9.489 28.133,10L26.233,11.9ZM24.3,13.867L10.167,28L4.5,28L4.5,22.333L18.633,8.2L24.3,13.867Z" style="fill-rule:nonzero;"/>
    </g>
</svg>
