<?xml version="1.0" encoding="UTF-8" standalone="no"?>
<!DOCTYPE svg PUBLIC "-//W3C//DTD SVG 1.1//EN" "http://www.w3.org/Graphics/SVG/1.1/DTD/svg11.dtd">
<svg width="100%" height="100%" viewBox="0 0 16 18" version="1.1" xmlns="http://www.w3.org/2000/svg" xmlns:xlink="http://www.w3.org/1999/xlink" xml:space="preserve" xmlns:serif="http://www.serif.com/" style="fill-rule:evenodd;clip-rule:evenodd;stroke-linejoin:round;stroke-miterlimit:2;">
    <path d="M3,18C2.45,18 1.979,17.804 1.587,17.413C1.196,17.021 1,16.55 1,16L1,3C0.717,3 0.479,2.904 0.288,2.713C0.096,2.521 0,2.283 0,2C0,1.717 0.096,1.479 0.288,1.288C0.479,1.096 0.717,1 1,1L5,1C5,0.717 5.096,0.479 5.287,0.288C5.479,0.096 5.717,0 6,0L10,0C10.283,0 10.521,0.096 10.713,0.288C10.904,0.479 11,0.717 11,1L15,1C15.283,1 15.521,1.096 15.713,1.288C15.904,1.479 16,1.717 16,2C16,2.283 15.904,2.521 15.713,2.713C15.521,2.904 15.283,3 15,3L15,16C15,16.55 14.804,17.021 14.413,17.413C14.021,17.804 13.55,18 13,18L3,18ZM3,3L3,16L13,16L13,3L3,3ZM5,13C5,13.283 5.096,13.521 5.287,13.713C5.479,13.904 5.717,14 6,14C6.283,14 6.521,13.904 6.713,13.713C6.904,13.521 7,13.283 7,13L7,6C7,5.717 6.904,5.479 6.713,5.287C6.521,5.096 6.283,5 6,5C5.717,5 5.479,5.096 5.287,5.287C5.096,5.479 5,5.717 5,6L5,13ZM9,13C9,13.283 9.096,13.521 9.288,13.713C9.479,13.904 9.717,14 10,14C10.283,14 10.521,13.904 10.713,13.713C10.904,13.521 11,13.283 11,13L11,6C11,5.717 10.904,5.479 10.713,5.287C10.521,5.096 10.283,5 10,5C9.717,5 9.479,5.096 9.288,5.287C9.096,5.479 9,5.717 9,6L9,13Z" style="fill-rule:nonzero;"/>
</svg>
