<?xml version="1.0" encoding="UTF-8" standalone="no"?>
<!DOCTYPE svg PUBLIC "-//W3C//DTD SVG 1.1//EN" "http://www.w3.org/Graphics/SVG/1.1/DTD/svg11.dtd">
<svg width="100%" height="100%" viewBox="0 0 20 8" version="1.1" xmlns="http://www.w3.org/2000/svg" xmlns:xlink="http://www.w3.org/1999/xlink" xml:space="preserve" xmlns:serif="http://www.serif.com/" style="fill-rule:evenodd;clip-rule:evenodd;stroke-linejoin:round;stroke-miterlimit:2;">
    <g transform="matrix(1,0,0,1,-0.248535,-0.274414)">
        <path d="M19.153,7.725L1.344,7.725C1.054,7.725 0.775,7.609 0.57,7.402C0.364,7.195 0.249,6.914 0.249,6.621C0.249,6.329 0.364,6.048 0.57,5.841C0.775,5.634 1.054,5.518 1.344,5.518L19.153,5.518C19.443,5.518 19.722,5.634 19.928,5.841C20.133,6.048 20.249,6.329 20.249,6.621C20.249,6.914 20.133,7.195 19.928,7.402C19.722,7.609 19.443,7.725 19.153,7.725Z" style="fill-rule:nonzero;"/>
    </g>
    <g transform="matrix(1,0,0,1,-0.248535,-0.274414)">
        <path d="M19.153,2.482L1.344,2.482C1.054,2.482 0.775,2.366 0.57,2.159C0.364,1.952 0.249,1.671 0.249,1.378C0.249,1.086 0.364,0.805 0.57,0.598C0.775,0.391 1.054,0.274 1.344,0.274L19.153,0.274C19.443,0.274 19.722,0.391 19.928,0.598C20.133,0.805 20.249,1.086 20.249,1.378C20.249,1.671 20.133,1.952 19.928,2.159C19.722,2.366 19.443,2.482 19.153,2.482Z" style="fill-rule:nonzero;"/>
    </g>
</svg>
