<?xml version="1.0" encoding="UTF-8" standalone="no"?>
<!DOCTYPE svg PUBLIC "-//W3C//DTD SVG 1.1//EN" "http://www.w3.org/Graphics/SVG/1.1/DTD/svg11.dtd">
<svg width="100%" height="100%" viewBox="0 0 21 15" version="1.1" xmlns="http://www.w3.org/2000/svg" xmlns:xlink="http://www.w3.org/1999/xlink" xml:space="preserve" xmlns:serif="http://www.serif.com/" style="fill-rule:evenodd;clip-rule:evenodd;stroke-linejoin:round;stroke-miterlimit:2;">
    <g transform="matrix(1,0,0,1,-0.248535,-0.745117)">
        <path d="M10.249,9.506C10.014,9.506 9.785,9.431 9.597,9.292L0.693,2.723C0.578,2.637 0.48,2.53 0.406,2.406C0.331,2.283 0.282,2.146 0.261,2.004C0.218,1.716 0.29,1.423 0.463,1.19C0.636,0.956 0.895,0.8 1.183,0.757C1.47,0.714 1.763,0.787 1.997,0.96L10.249,7.042L18.5,0.96C18.616,0.874 18.747,0.812 18.887,0.778C19.027,0.743 19.172,0.736 19.314,0.757C19.457,0.779 19.594,0.828 19.717,0.902C19.841,0.976 19.948,1.074 20.034,1.19C20.119,1.305 20.181,1.437 20.216,1.577C20.251,1.716 20.258,1.861 20.236,2.004C20.215,2.146 20.166,2.283 20.092,2.406C20.017,2.53 19.92,2.637 19.804,2.723L10.9,9.292C10.712,9.431 10.483,9.506 10.249,9.506Z" style="fill-rule:nonzero;"/>
    </g>
    <g transform="matrix(1,0,0,1,-0.248535,-0.745117)">
        <path d="M10.249,15.254C10.014,15.255 9.785,15.18 9.597,15.041L0.693,8.471C0.46,8.298 0.304,8.04 0.261,7.752C0.218,7.465 0.29,7.172 0.463,6.938C0.636,6.704 0.895,6.549 1.183,6.506C1.47,6.463 1.763,6.536 1.997,6.708L10.249,12.791L18.5,6.708C18.734,6.536 19.027,6.463 19.314,6.506C19.602,6.549 19.861,6.704 20.034,6.938C20.207,7.172 20.28,7.465 20.236,7.752C20.193,8.04 20.038,8.298 19.804,8.471L10.9,15.041C10.712,15.18 10.483,15.255 10.249,15.254Z" style="fill-rule:nonzero;"/>
    </g>
</svg>
