<?xml version="1.0" encoding="UTF-8" standalone="no"?>
<!DOCTYPE svg PUBLIC "-//W3C//DTD SVG 1.1//EN" "http://www.w3.org/Graphics/SVG/1.1/DTD/svg11.dtd">
<svg width="100%" height="100%" viewBox="0 0 43 43" version="1.1" xmlns="http://www.w3.org/2000/svg" xmlns:xlink="http://www.w3.org/1999/xlink" xml:space="preserve" xmlns:serif="http://www.serif.com/" style="fill-rule:evenodd;clip-rule:evenodd;stroke-linejoin:round;stroke-miterlimit:2;">
    <g transform="matrix(1,0,0,1,-0.666748,-0.666748)">
        <path d="M22,22C19.067,22 16.556,20.956 14.467,18.867C12.378,16.778 11.333,14.267 11.333,11.333C11.333,8.4 12.378,5.889 14.467,3.8C16.556,1.711 19.067,0.667 22,0.667C24.933,0.667 27.445,1.711 29.533,3.8C31.622,5.889 32.667,8.4 32.667,11.333C32.667,14.267 31.622,16.778 29.533,18.867C27.445,20.956 24.933,22 22,22ZM38,43.333L6,43.333C4.533,43.333 3.278,42.811 2.233,41.767C1.189,40.722 0.667,39.467 0.667,38L0.667,35.867C0.667,34.356 1.056,32.967 1.833,31.7C2.611,30.433 3.645,29.467 4.933,28.8C7.689,27.422 10.489,26.389 13.333,25.7C16.178,25.011 19.067,24.667 22,24.667C24.933,24.667 27.822,25.011 30.667,25.7C33.511,26.389 36.311,27.422 39.067,28.8C40.356,29.467 41.389,30.433 42.167,31.7C42.945,32.967 43.333,34.356 43.333,35.867L43.333,38C43.333,39.467 42.811,40.722 41.767,41.767C40.722,42.811 39.467,43.333 38,43.333ZM6,38L38,38L38,35.867C38,35.378 37.878,34.933 37.633,34.533C37.389,34.133 37.067,33.822 36.667,33.6C34.267,32.4 31.845,31.5 29.4,30.9C26.956,30.3 24.489,30 22,30C19.511,30 17.045,30.3 14.6,30.9C12.156,31.5 9.733,32.4 7.333,33.6C6.933,33.822 6.611,34.133 6.367,34.533C6.122,34.933 6,35.378 6,35.867L6,38ZM22,16.667C23.467,16.667 24.722,16.145 25.767,15.1C26.811,14.056 27.333,12.8 27.333,11.333C27.333,9.867 26.811,8.611 25.767,7.567C24.722,6.522 23.467,6 22,6C20.533,6 19.278,6.522 18.233,7.567C17.189,8.611 16.667,9.867 16.667,11.333C16.667,12.8 17.189,14.056 18.233,15.1C19.278,16.145 20.533,16.667 22,16.667Z" style="fill-rule:nonzero;"/>
    </g>
</svg>
